<svg width="74" height="74" viewBox="0 0 74 74" fill="none" xmlns="http://www.w3.org/2000/svg">
    <path d="M34.3665 9.3194C35.5382 7.21758 36.124 6.16666 37 6.16666C37.876 6.16666 38.4618 7.21758 39.6335 9.3194L39.9366 9.86317C40.2692 10.4604 40.4357 10.7591 40.6954 10.9561C40.955 11.1532 41.2781 11.2263 41.9247 11.3726L42.5133 11.5058C44.7885 12.0206 45.9262 12.278 46.197 13.1483C46.4677 14.0186 45.6919 14.9255 44.141 16.7393L43.7395 17.2086C43.2989 17.724 43.0785 17.9817 42.9792 18.3005C42.8802 18.6194 42.9135 18.9632 42.9801 19.6509L43.0409 20.277C43.2752 22.697 43.3927 23.907 42.6841 24.4449C41.9753 24.9828 40.9103 24.4923 38.78 23.5115L38.229 23.2577C37.6234 22.979 37.321 22.8396 37 22.8396C36.679 22.8396 36.3765 22.979 35.771 23.2577L35.22 23.5115C33.0897 24.4923 32.0247 24.9828 31.3159 24.4449C30.6074 23.907 30.7247 22.697 30.9591 20.277L31.0199 19.6509C31.0865 18.9632 31.1198 18.6194 31.0208 18.3005C30.9215 17.9817 30.7011 17.724 30.2604 17.2086L29.8591 16.7393C28.308 14.9255 27.5325 14.0186 27.8031 13.1483C28.0738 12.278 29.2114 12.0206 31.4867 11.5058L32.0753 11.3726C32.7219 11.2263 33.045 11.1532 33.3046 10.9561C33.5642 10.7591 33.7307 10.4604 34.0634 9.86317L34.3665 9.3194Z" fill="white"/>
    <path d="M40.0833 30.8333H33.9167C29.5562 30.8333 27.3759 30.8333 26.0213 32.1879C24.6667 33.5427 24.6667 35.7229 24.6667 40.0833V67.8333H49.3333V58.5833V40.0833C49.3333 35.7229 49.3333 33.5427 47.9788 32.1879C46.624 30.8333 44.4438 30.8333 40.0833 30.8333Z" fill="white"/>
    <g opacity="0.5">
    <path d="M23.312 59.9378C21.9574 58.5833 19.7771 58.5833 15.4167 58.5833C11.0562 58.5833 8.87592 58.5833 7.52129 59.9378C6.16666 61.2926 6.16666 63.4729 6.16666 67.8333H24.6667C24.6667 63.4729 24.6667 61.2926 23.312 59.9378Z" fill="white"/>
    <path d="M49.3333 58.5833V67.8333H67.8333V58.5833C67.8333 54.2229 67.8333 52.0426 66.4788 50.6878C65.124 49.3333 62.9438 49.3333 58.5833 49.3333C54.2229 49.3333 52.0426 49.3333 50.6878 50.6878C49.3333 52.0426 49.3333 54.2229 49.3333 58.5833Z" fill="white"/>
    </g>
    </svg>
    