<svg width="40" height="44" viewBox="0 0 40 44" fill="none" xmlns="http://www.w3.org/2000/svg">
    <path d="M14.4705 37.4793L15.7103 40.2397C16.0788 41.0613 16.6803 41.7595 17.4417 42.2495C18.2032 42.7394 19.0918 43.0001 20 43C20.9082 43.0001 21.7968 42.7394 22.5583 42.2495C23.3197 41.7595 23.9212 41.0613 24.2897 40.2397L25.5295 37.4793C25.9708 36.4999 26.7132 35.6833 27.6508 35.146C28.5943 34.6072 29.6858 34.3777 30.7691 34.4903L33.8026 34.81C34.7055 34.9046 35.6168 34.7377 36.426 34.3298C37.2351 33.9218 37.9072 33.2903 38.361 32.5117C38.8153 31.7335 39.0318 30.8416 38.9841 29.9441C38.9364 29.0465 38.6266 28.182 38.0923 27.4553L36.2963 25.0123C35.6567 24.136 35.315 23.0811 35.3205 22C35.3203 20.9218 35.6652 19.8713 36.3057 18.9993L38.1017 16.5563C38.636 15.8297 38.9458 14.9651 38.9935 14.0676C39.0412 13.1701 38.8248 12.2781 38.3704 11.5C37.9167 10.7214 37.2445 10.0898 36.4354 9.68188C35.6263 9.27393 34.715 9.10711 33.812 9.20167L30.7785 9.52133C29.6953 9.63396 28.6038 9.40445 27.6602 8.86567C26.7208 8.32533 25.9782 7.50445 25.5389 6.52067L24.2897 3.76033C23.9212 2.93866 23.3197 2.2405 22.5583 1.75054C21.7968 1.26057 20.9082 0.999853 20 1C19.0918 0.999853 18.2032 1.26057 17.4417 1.75054C16.6803 2.2405 16.0788 2.93866 15.7103 3.76033L14.4705 6.52067C14.0312 7.50445 13.2887 8.32533 12.3492 8.86567C11.4057 9.40445 10.3142 9.63396 9.23089 9.52133L6.188 9.20167C5.28503 9.10711 4.37374 9.27393 3.56463 9.68188C2.75551 10.0898 2.08333 10.7214 1.62957 11.5C1.17524 12.2781 0.958783 13.1701 1.00648 14.0676C1.05417 14.9651 1.36397 15.8297 1.89827 16.5563L3.6943 18.9993C4.33481 19.8713 4.67972 20.9218 4.67953 22C4.67972 23.0782 4.33481 24.1287 3.6943 25.0007L1.89827 27.4437C1.36397 28.1703 1.05417 29.0349 1.00648 29.9324C0.958783 30.8299 1.17524 31.7219 1.62957 32.5C2.08378 33.2782 2.75604 33.9094 3.56504 34.3173C4.37404 34.7252 5.2851 34.8923 6.188 34.7983L9.22146 34.4787C10.3047 34.366 11.3962 34.5955 12.3398 35.1343C13.2827 35.6731 14.0288 36.4942 14.4705 37.4793Z" fill="url(#paint0_linear_0_1)"/>
    <path d="M19.9962 28.3C23.5109 28.3 26.3601 25.4794 26.3601 22C26.3601 18.5206 23.5109 15.7 19.9962 15.7C16.4815 15.7 13.6323 18.5206 13.6323 22C13.6323 25.4794 16.4815 28.3 19.9962 28.3Z" fill="url(#paint1_linear_0_1)"/>
    <path d="M14.4705 37.4793L15.7103 40.2397C16.0788 41.0613 16.6803 41.7595 17.4417 42.2495C18.2032 42.7394 19.0918 43.0001 20 43C20.9082 43.0001 21.7968 42.7394 22.5583 42.2495C23.3197 41.7595 23.9212 41.0613 24.2897 40.2397L25.5295 37.4793C25.9708 36.4999 26.7132 35.6833 27.6508 35.146C28.5943 34.6072 29.6858 34.3777 30.7691 34.4903L33.8026 34.81C34.7055 34.9046 35.6168 34.7377 36.426 34.3298C37.2351 33.9218 37.9072 33.2903 38.361 32.5117C38.8153 31.7335 39.0318 30.8416 38.9841 29.9441C38.9364 29.0465 38.6266 28.182 38.0923 27.4553L36.2963 25.0123C35.6567 24.136 35.315 23.0811 35.3205 22C35.3203 20.9218 35.6652 19.8713 36.3057 18.9993L38.1017 16.5563C38.636 15.8297 38.9458 14.9651 38.9935 14.0676C39.0412 13.1701 38.8248 12.2781 38.3704 11.5C37.9167 10.7214 37.2445 10.0898 36.4354 9.68188C35.6263 9.27393 34.715 9.10711 33.812 9.20167L30.7785 9.52133C29.6953 9.63396 28.6038 9.40445 27.6602 8.86567C26.7208 8.32533 25.9782 7.50445 25.5389 6.52067L24.2897 3.76033C23.9212 2.93866 23.3197 2.2405 22.5583 1.75054C21.7968 1.26057 20.9082 0.999853 20 1C19.0918 0.999853 18.2032 1.26057 17.4417 1.75054C16.6803 2.2405 16.0788 2.93866 15.7103 3.76033L14.4705 6.52067C14.0312 7.50445 13.2887 8.32533 12.3492 8.86567C11.4057 9.40445 10.3142 9.63396 9.23089 9.52133L6.188 9.20167C5.28503 9.10711 4.37374 9.27393 3.56463 9.68188C2.75551 10.0898 2.08333 10.7214 1.62957 11.5C1.17524 12.2781 0.958783 13.1701 1.00648 14.0676C1.05417 14.9651 1.36397 15.8297 1.89827 16.5563L3.6943 18.9993C4.33481 19.8713 4.67972 20.9218 4.67953 22C4.67972 23.0782 4.33481 24.1287 3.6943 25.0007L1.89827 27.4437C1.36397 28.1703 1.05417 29.0349 1.00648 29.9324C0.958783 30.8299 1.17524 31.7219 1.62957 32.5C2.08378 33.2782 2.75604 33.9094 3.56504 34.3173C4.37404 34.7252 5.2851 34.8923 6.188 34.7983L9.22146 34.4787C10.3047 34.366 11.3962 34.5955 12.3398 35.1343C13.2827 35.6731 14.0288 36.4942 14.4705 37.4793Z" stroke="url(#paint2_linear_0_1)" stroke-width="2" stroke-linecap="round" stroke-linejoin="round"/>
    <path d="M19.9962 28.3C23.5109 28.3 26.3601 25.4794 26.3601 22C26.3601 18.5206 23.5109 15.7 19.9962 15.7C16.4815 15.7 13.6323 18.5206 13.6323 22C13.6323 25.4794 16.4815 28.3 19.9962 28.3Z" stroke="url(#paint3_linear_0_1)" stroke-width="2" stroke-linecap="round" stroke-linejoin="round"/>
    <circle cx="20" cy="22" r="6" fill="white"/>
    <defs>
    <linearGradient id="paint0_linear_0_1" x1="20" y1="1" x2="20" y2="43" gradientUnits="userSpaceOnUse">
    <stop stop-color="#E67591"/>
    <stop offset="1" stop-color="#9A1CB1"/>
    </linearGradient>
    <linearGradient id="paint1_linear_0_1" x1="20" y1="1" x2="20" y2="43" gradientUnits="userSpaceOnUse">
    <stop stop-color="#E67591"/>
    <stop offset="1" stop-color="#9A1CB1"/>
    </linearGradient>
    <linearGradient id="paint2_linear_0_1" x1="20" y1="1" x2="20" y2="43" gradientUnits="userSpaceOnUse">
    <stop stop-color="#E67591"/>
    <stop offset="1" stop-color="#9A1CB1"/>
    </linearGradient>
    <linearGradient id="paint3_linear_0_1" x1="20" y1="1" x2="20" y2="43" gradientUnits="userSpaceOnUse">
    <stop stop-color="#E67591"/>
    <stop offset="1" stop-color="#9A1CB1"/>
    </linearGradient>
    </defs>
    </svg>
    