<svg width="56" height="56" viewBox="0 0 56 56" fill="none" xmlns="http://www.w3.org/2000/svg">
    <g clip-path="url(#clip0_2034_110)">
    <path d="M37.9567 24.0115C43.4496 18.5184 43.4494 9.61255 37.9564 4.11968C32.4633 -1.37319 23.5574 -1.37304 18.0646 4.12003C12.5717 9.61309 12.5718 18.519 18.0649 24.0118C23.558 29.5047 32.4638 29.5045 37.9567 24.0115Z" fill="white"/>
    <path d="M44.1437 40.6404C43.0609 39.5576 37.2422 33.9576 28.0109 33.9576C18.7797 33.9576 12.95 39.5685 11.8781 40.6404C8.51795 44.0005 6.84637 47.772 6.01531 50.8488C5.15121 54.0479 7.8816 56.7732 11.1953 56.7732H44.8266C48.1403 56.7732 50.8707 54.0479 50.0066 50.8488C49.1755 47.772 47.5039 44.0005 44.1437 40.6404Z" fill="white"/>
    </g>
    <defs>
    <clipPath id="clip0_2034_110">
    <rect width="56" height="56" fill="white"/>
    </clipPath>
    </defs>
    </svg>
    