<svg width="45" height="43" viewBox="0 0 45 43" fill="none" xmlns="http://www.w3.org/2000/svg">
    <path d="M17 14.9896C17 14.0185 17 13.5329 17.2025 13.2652C17.3789 13.032 17.6485 12.8877 17.9404 12.8703C18.2754 12.8503 18.6795 13.1196 19.4875 13.6584L30.0031 20.6687C30.6708 21.1139 31.0046 21.3364 31.1209 21.6169C31.2227 21.8622 31.2227 22.1378 31.1209 22.3831C31.0046 22.6636 30.6708 22.8862 30.0031 23.3313L19.4875 30.3417C18.6795 30.8804 18.2754 31.1497 17.9404 31.1297C17.6485 31.1123 17.3789 30.968 17.2025 30.7348C17 30.4671 17 29.9815 17 29.0104V14.9896Z" stroke="white" stroke-width="2" stroke-linecap="round" stroke-linejoin="round"/>
    <rect x="0.5" y="0.5" width="44" height="42" rx="16.5" stroke="white"/>
    </svg>
    